<svg xmlns="http://www.w3.org/2000/svg" width="1267.737" height="316.821" viewBox="-245.5 671.5 1267.737 316.821"><g data-name="Vector"><path d="M-244.862 754.826c6.468-7.65 13.352-14.951 20.724-21.697 60.709-55.702 147.774-75.313 226.355-50.626 40.751 12.796 74.756 36.648 104.729 66.62 31.223 31.224 59.596 65.717 98.539 87.83 84.84 48.123 186.23 39.152 279.693 34.076 93.88-5.147 187.204.556 278.998 20.723 90.055 19.75 177.26 52.225 258.344 96.244.487.278.07 1.043-.417.765a950.11 950.11 0 0 0-30.111-15.716c-82.406-41.168-170.723-70.514-261.335-87.204a983.429 983.429 0 0 0-138.316-15.438c-48.331-1.878-96.384.904-144.645 3.546-87.552 4.729-183.588 5.355-258.901-46.453-34.84-23.992-61.126-57.788-91.585-86.717-32.059-30.46-70.097-52.504-113.421-62.379-83.797-19.054-172.81 11.405-228.094 77.052-.348.417-.974-.209-.557-.626Z" fill="#fff" fill-rule="evenodd"/><path d="M-244.862 754.826c6.468-7.65 13.352-14.951 20.724-21.697 60.709-55.702 147.774-75.313 226.355-50.626 40.751 12.796 74.756 36.648 104.729 66.62 31.223 31.224 59.596 65.717 98.539 87.83 84.84 48.123 186.23 39.152 279.693 34.076 93.88-5.147 187.204.556 278.998 20.723 90.055 19.75 177.26 52.225 258.344 96.244.487.278.07 1.043-.417.765a950.11 950.11 0 0 0-30.111-15.716c-82.406-41.168-170.723-70.514-261.335-87.204a983.429 983.429 0 0 0-138.316-15.438c-48.331-1.878-96.384.904-144.645 3.546-87.552 4.729-183.588 5.355-258.901-46.453-34.84-23.992-61.126-57.788-91.585-86.717-32.059-30.46-70.097-52.504-113.421-62.379-83.797-19.054-172.81 11.405-228.094 77.052-.348.417-.974-.209-.557-.626Z" stroke-linejoin="round" stroke-linecap="round" stroke="#fff" fill="transparent"/></g></svg>